<svg height="512pt" viewBox="-13 0 512 512.00126" width="512pt" xmlns="http://www.w3.org/2000/svg"><path d="m8.535156 221.867188h119.464844c4.714844 0 8.535156-3.820313 8.535156-8.535157v-8.53125h17.066406v8.53125c0 4.714844 3.820313 8.535157 8.53125 8.535157h10.402344l6.921875 27.671874c.953125 3.796876 4.363281 6.460938 8.277344 6.460938h34.132813c3.914062 0 7.328124-2.664062 8.277343-6.460938l6.921875-27.671874h10.402344c4.710938 0 8.53125-3.820313 8.53125-8.535157v-42.664062c3.25.015625 6.230469-1.8125 7.683594-4.71875l14.660156-29.417969h37.390625v290.136719h-56.910156c14.21875-9.429688 22.769531-25.351563 22.777343-42.410157v-59.992187c0-4.710937-3.820312-8.53125-8.535156-8.53125h-136.53125c-4.714844 0-8.535156 3.820313-8.535156 8.53125h-42.667969c-4.710937 0-8.53125 3.820313-8.53125 8.535156v51.199219c0 4.714844 3.820313 8.535156 8.53125 8.535156h43.402344c2.304687 13.9375 10.285156 26.296875 22.042969 34.132813h-65.441406c-4.714844 0-8.535157 3.820312-8.535157 8.53125v68.269531c0 4.710938 3.820313 8.53125 8.535157 8.53125h392.53125c4.714843 0 8.535156-3.820312 8.535156-8.53125v-494.933594c0-4.714844-3.820313-8.535156-8.535156-8.535156h-392.53125c-4.714844 0-8.535157 3.820312-8.535157 8.535156v119.464844c0 4.714844 3.820313 8.535156 8.535157 8.535156h45.925781l14.703125 29.414063c1.445312 2.890625 4.402344 4.71875 7.636718 4.71875v17.066406h-17.066406v-8.535156c0-4.710938-3.820312-8.53125-8.535156-8.53125h-119.464844c-4.714844 0-8.535156 3.820312-8.535156 8.53125v34.132812c0 4.714844 3.820312 8.535157 8.535156 8.535157zm85.332032 119.464843h34.132812v34.136719h-34.132812zm51.199218 42.667969v-51.199219h119.46875v51.457031c-.023437 18.699219-15.175781 33.851563-33.878906 33.875h-51.710938c-18.699218-.023437-33.855468-15.175781-33.875-33.875v-.257812zm70.136719-145.066406h-20.804687l-4.265626-17.066406h29.335938zm117.597656-102.402344h136.535157v290.136719h-136.535157zm136.535157 358.402344h-375.46875v-51.199219h375.46875zm-375.46875-477.867188h375.46875v102.398438h-375.46875zm56.472656 119.464844h108.921875l-8.535157 17.070312h-91.851562zm88.59375 34.136719v34.132812h-68.265625v-34.132812zm-221.867188 17.066406h102.402344v17.066406h-102.402344zm0 0"/><path d="m204.800781 102.398438c18.851563 0 34.132813-15.28125 34.132813-34.132813s-15.28125-34.132813-34.132813-34.132813c-18.851562 0-34.132812 15.28125-34.132812 34.132813s15.28125 34.132813 34.132812 34.132813zm0-51.199219c9.425781 0 17.066407 7.640625 17.066407 17.066406s-7.640626 17.066406-17.066407 17.066406-17.066406-7.640625-17.066406-17.066406 7.640625-17.066406 17.066406-17.066406zm0 0"/><path d="m256 59.734375h17.066406v17.066406h-17.066406zm0 0"/><path d="m290.136719 59.734375h17.066406v17.066406h-17.066406zm0 0"/><path d="m392.535156 332.800781h17.066406v68.265625h-17.066406zm0 0"/><path d="m358.402344 332.800781h17.066406v68.265625h-17.066406zm0 0"/><path d="m426.667969 332.800781h17.066406v68.265625h-17.066406zm0 0"/></svg>