<?xml version="1.0" encoding="iso-8859-1"?>
<!-- Generator: Adobe Illustrator 19.0.0, SVG Export Plug-In . SVG Version: 6.00 Build 0)  -->
<svg version="1.1" id="Layer_1" xmlns="http://www.w3.org/2000/svg" xmlns:xlink="http://www.w3.org/1999/xlink" x="0px" y="0px"
	 viewBox="0 0 496 496" style="enable-background:new 0 0 496 496;" xml:space="preserve">
<g>
	<g>
		<g>
			<path d="M376,192h80c22.056,0,40-17.944,40-40c0-22.056-17.944-40-40-40h-80V68c0-37.496-30.504-68-68-68H64v0.2
				C28.376,2.288,0,31.856,0,68v12h120v8H72v22.024c-1.112,0.44-2.216,0.904-3.328,1.392L53.088,95.832L7.84,141.088l15.584,15.592
				c-0.496,1.104-0.952,2.208-1.392,3.32H0v64h22.032c0.44,1.112,0.896,2.216,1.392,3.32L7.84,242.912l45.248,45.256l15.584-15.584
				c1.112,0.488,2.216,0.952,3.328,1.392V296h48v132c0,37.496,30.504,68,68,68h240c37.496,0,68-30.504,68-68v-12H376V192z M456,128
				c13.232,0,24,10.768,24,24s-10.768,24-24,24V128z M120,219.472c-4.928,2.92-10.368,4.528-16,4.528c-17.648,0-32-14.352-32-32
				s14.352-32,32-32c5.632,0,11.072,1.608,16,4.528V219.472z M120,146.88c-5.12-1.856-10.496-2.88-16-2.88
				c-26.472,0-48,21.528-48,48s21.528,48,48,48c5.504,0,10.88-1.024,16-2.88V280H88v-17.536l-5.592-1.76
				c-3.888-1.224-7.816-2.864-11.672-4.88l-5.2-2.72l-12.448,12.448L30.464,242.92l12.448-12.44l-2.72-5.208
				c-2.024-3.872-3.664-7.8-4.88-11.664L33.536,208H16v-32h17.536l1.768-5.6c1.216-3.864,2.856-7.792,4.88-11.664l2.72-5.208
				l-12.448-12.44l22.624-22.632l12.448,12.448l5.2-2.72c3.856-2.016,7.784-3.656,11.672-4.88l5.6-1.768V104h32V146.88z M408,176
				H248v-16h160V176z M229.192,112l-50,40l50,40H328v32H168V80h160v32H229.192z M232,130.24v43.512L204.808,152L232,130.24z
				 M424,128h16v48h-16V128z M408,128v16H248v-16H408z M16.152,64C18.2,37.184,40.672,16,68,16s49.8,21.184,51.848,48H16.152z
				 M188,480c-28.672,0-52-23.328-52-52V68c0-20.848-9.456-39.52-24.272-52H308c28.672,0,52,23.328,52,52v44h-16V64H152v176h192v-48
				h16v224H240v12C240,456.672,216.672,480,188,480z M479.856,432c-2.056,26.816-24.528,48-51.856,48H231.776
				c13.848-11.68,22.992-28.784,24.112-48H479.856z"/>
			<rect x="152" y="264" width="192" height="16"/>
			<rect x="152" y="304" width="192" height="16"/>
			<rect x="152" y="344" width="192" height="16"/>
			<rect x="152" y="384" width="160" height="16"/>
			<rect x="328" y="384" width="16" height="16"/>
		</g>
	</g>
</g>
<g>
</g>
<g>
</g>
<g>
</g>
<g>
</g>
<g>
</g>
<g>
</g>
<g>
</g>
<g>
</g>
<g>
</g>
<g>
</g>
<g>
</g>
<g>
</g>
<g>
</g>
<g>
</g>
<g>
</g>
</svg>
