<?xml version="1.0" encoding="iso-8859-1"?>
<!-- Generator: Adobe Illustrator 19.0.0, SVG Export Plug-In . SVG Version: 6.00 Build 0)  -->
<svg version="1.1" id="Layer_1" xmlns="http://www.w3.org/2000/svg" xmlns:xlink="http://www.w3.org/1999/xlink" x="0px" y="0px"
	 viewBox="0 0 512 512" style="enable-background:new 0 0 512 512;" xml:space="preserve">
<g>
	<g>
		<g>
			<path d="M309.348,245.336v-32c0-13.133-5.688-26.531-15.609-36.758c-7.672-7.93-17.047-13.211-27.063-15.414v-11.828h31.984V160
				c0,5.891,4.781,10.664,10.688,10.664c5.875,0,10.656-4.773,10.656-10.664v-10.664h37.344L295.113,0h-78.219l-62.219,149.336
				h90.656v11.828c-10.031,2.203-19.375,7.484-27.063,15.414c-9.906,10.227-15.594,23.625-15.594,36.758v32H85.34V480h21.328
				c0,17.656,14.359,32,32.008,32c17.641,0,32-14.344,32-32h170.672c0,17.656,14.344,32,32,32c17.625,0,32-14.344,32-32h21.313
				V245.336H309.348z M186.676,128l44.438-106.664h49.781L325.348,128H186.676z M224.004,213.336c0-18.023,17.203-32,32-32
				c18.031,0,32,17.203,32,32v32h-64V213.336z M138.676,490.656c-5.891,0-10.672-4.781-10.672-10.656h21.328
				C149.332,485.875,144.551,490.656,138.676,490.656z M373.348,490.656c-5.891,0-10.688-4.781-10.688-10.656h21.344
				C384.004,485.875,379.223,490.656,373.348,490.656z M405.348,458.656h-64H170.676h-64.008v-85.313h298.68V458.656z M405.348,352
				h-298.68v-85.336h96.008h106.672h96V352z"/>
			<path d="M288.004,298.656h-64c-5.891,0-10.672,4.781-10.672,10.688c0,5.875,4.781,10.656,10.672,10.656h64
				c5.891,0,10.656-4.781,10.656-10.656C298.66,303.438,293.895,298.656,288.004,298.656z"/>
			<path d="M224.004,426.656h64c5.891,0,10.656-4.766,10.656-10.656s-4.766-10.656-10.656-10.656h-64
				c-5.891,0-10.672,4.766-10.672,10.656S218.113,426.656,224.004,426.656z"/>
		</g>
	</g>
</g>
<g>
</g>
<g>
</g>
<g>
</g>
<g>
</g>
<g>
</g>
<g>
</g>
<g>
</g>
<g>
</g>
<g>
</g>
<g>
</g>
<g>
</g>
<g>
</g>
<g>
</g>
<g>
</g>
<g>
</g>
</svg>
