<?xml version="1.0" encoding="iso-8859-1"?>
<!-- Generator: Adobe Illustrator 19.0.0, SVG Export Plug-In . SVG Version: 6.00 Build 0)  -->
<svg version="1.1" id="Capa_1" xmlns="http://www.w3.org/2000/svg" xmlns:xlink="http://www.w3.org/1999/xlink" x="0px" y="0px"
	 viewBox="0 0 496 496" style="enable-background:new 0 0 496 496;" xml:space="preserve">
<g>
	<g>
		<g>
			<path d="M200,328h96v-48h-96V328z M216,296h64v16h-64V296z"/>
			<path d="M200,152h96v-48h-96V152z M216,120h64v16h-64V120z"/>
			<path d="M464,24H32C14.352,24,0,38.352,0,56s14.352,32,32,32v160v8v184h56v32h80v-32h160v32h80v-32h56V256v-8V88
				c17.648,0,32-14.352,32-32S481.648,24,464,24z M64,424H48V264h16V424z M64,248H48V88h16V248z M152,456h-48v-16h48V456z M392,456
				h-48v-16h48V456z M448,424h-16v-16h-16v16h-8h-80H168H88h-8V264h336v128h16V264h16V424z M80,248V88h336v160H80z M448,248h-16V88
				h16V248z M464,72H32c-8.824,0-16-7.176-16-16s7.176-16,16-16h432c8.824,0,16,7.176,16,16S472.824,72,464,72z"/>
		</g>
	</g>
</g>
<g>
</g>
<g>
</g>
<g>
</g>
<g>
</g>
<g>
</g>
<g>
</g>
<g>
</g>
<g>
</g>
<g>
</g>
<g>
</g>
<g>
</g>
<g>
</g>
<g>
</g>
<g>
</g>
<g>
</g>
</svg>
